<svg width="571" height="67" viewBox="0 0 571 67" fill="none" xmlns="http://www.w3.org/2000/svg">
<g clip-path="url(#clip0_2678_43286)">
<path d="M27.0301 0.394531H83.2401C98.1011 0.394531 110.19 15.7794 110.19 33.5596C110.19 51.3397 98.1011 66.7246 83.2401 66.7246H27.0301C12.1691 66.7246 0.0800781 51.3397 0.0800781 33.5596C0.0800781 15.7794 12.1691 0.394531 27.0301 0.394531ZM78.2351 24.3471H32.0351C27.8001 24.3471 24.3351 28.4927 24.3351 33.5596C24.3351 38.6264 27.8001 42.7721 32.0351 42.7721H78.2351C82.4701 42.7721 85.9351 38.6264 85.9351 33.5596C85.9351 28.4927 82.4701 24.3471 78.2351 24.3471Z" fill="#2AA6FF"/>
<path d="M152.211 65.8039V23.4264H113.249V1.31641H215.659V23.4264H176.543V65.8039H152.211Z" fill="#2AA6FF"/>
<path d="M318.848 41.8514V65.8039H245.698C230.837 65.8039 218.748 51.3403 218.748 33.5602C218.748 15.7801 230.837 1.31641 245.698 1.31641H318.848V25.2689H250.703C246.468 25.2689 243.003 28.4933 243.003 33.5602C243.003 38.6271 246.468 41.8514 250.703 41.8514H318.848Z" fill="#2AA6FF"/>
<path d="M324.999 65.8039V1.31641H425.099V17.8989H349.331V25.2689H425.099V41.8514H349.331V49.2214H425.099V65.8039H324.999Z" fill="#2AA6FF"/>
<path d="M429.997 1.31641H464.339L484.205 18.3596L504.071 1.31641H538.413L501.376 33.0996L539.491 65.8039H505.149L484.205 47.8396L463.261 65.8039H428.919L467.034 33.0996L429.997 1.31641Z" fill="#2AA6FF"/>
<path d="M557.5 66.9997L571 35.8926H544L557.5 66.9997Z" fill="#2AA6FF"/>
<path d="M557.5 2.39258L571 33.4997H544L557.5 2.39258Z" fill="#2885FF"/>
</g>
<defs>
<clipPath id="clip0_2678_43286">
<rect width="571" height="67" fill="white"/>
</clipPath>
</defs>
</svg>
